<mxfile host="app.diagrams.net" modified="2022-01-09T16:37:23.631Z" agent="5.0 (Macintosh; Intel Mac OS X 10_15_7) AppleWebKit/537.36 (KHTML, like Gecko) Chrome/96.0.4664.110 Safari/537.36" etag="QyDbybO-dVYUtAyhYQj7" version="16.2.2" type="github" pages="2">
  <diagram id="prtHgNgQTEPvFCAcTncT" name="Page-1">
    <mxGraphModel dx="510" dy="294" grid="1" gridSize="10" guides="1" tooltips="1" connect="1" arrows="1" fold="1" page="1" pageScale="1" pageWidth="827" pageHeight="1169" math="0" shadow="0">
      <root>
        <mxCell id="0" />
        <mxCell id="1" parent="0" />
        <mxCell id="dNxyNK7c78bLwvsdeMH5-19" value="Pool" style="swimlane;html=1;childLayout=stackLayout;resizeParent=1;resizeParentMax=0;horizontal=0;startSize=20;horizontalStack=0;" parent="1" vertex="1">
          <mxGeometry x="120" y="120" width="450" height="360" as="geometry" />
        </mxCell>
        <mxCell id="dNxyNK7c78bLwvsdeMH5-27" value="" style="edgeStyle=orthogonalEdgeStyle;rounded=0;orthogonalLoop=1;jettySize=auto;html=1;dashed=1;endArrow=none;endFill=0;" parent="dNxyNK7c78bLwvsdeMH5-19" source="dNxyNK7c78bLwvsdeMH5-24" target="dNxyNK7c78bLwvsdeMH5-26" edge="1">
          <mxGeometry relative="1" as="geometry" />
        </mxCell>
        <mxCell id="dNxyNK7c78bLwvsdeMH5-31" style="edgeStyle=orthogonalEdgeStyle;rounded=0;orthogonalLoop=1;jettySize=auto;html=1;endArrow=classic;endFill=1;" parent="dNxyNK7c78bLwvsdeMH5-19" source="dNxyNK7c78bLwvsdeMH5-28" target="dNxyNK7c78bLwvsdeMH5-30" edge="1">
          <mxGeometry relative="1" as="geometry" />
        </mxCell>
        <mxCell id="dNxyNK7c78bLwvsdeMH5-35" style="edgeStyle=orthogonalEdgeStyle;rounded=0;orthogonalLoop=1;jettySize=auto;html=1;endArrow=classic;endFill=1;" parent="dNxyNK7c78bLwvsdeMH5-19" source="dNxyNK7c78bLwvsdeMH5-28" target="dNxyNK7c78bLwvsdeMH5-34" edge="1">
          <mxGeometry relative="1" as="geometry" />
        </mxCell>
        <mxCell id="dNxyNK7c78bLwvsdeMH5-38" style="edgeStyle=orthogonalEdgeStyle;rounded=0;orthogonalLoop=1;jettySize=auto;html=1;endArrow=classic;endFill=1;" parent="dNxyNK7c78bLwvsdeMH5-19" source="dNxyNK7c78bLwvsdeMH5-26" target="dNxyNK7c78bLwvsdeMH5-36" edge="1">
          <mxGeometry relative="1" as="geometry">
            <Array as="points">
              <mxPoint x="180" y="340" />
              <mxPoint x="400" y="340" />
            </Array>
          </mxGeometry>
        </mxCell>
        <mxCell id="dNxyNK7c78bLwvsdeMH5-20" value="Lane 1" style="swimlane;html=1;startSize=20;horizontal=0;" parent="dNxyNK7c78bLwvsdeMH5-19" vertex="1">
          <mxGeometry x="20" width="430" height="120" as="geometry" />
        </mxCell>
        <mxCell id="dNxyNK7c78bLwvsdeMH5-25" value="" style="edgeStyle=orthogonalEdgeStyle;rounded=0;orthogonalLoop=1;jettySize=auto;html=1;" parent="dNxyNK7c78bLwvsdeMH5-20" source="dNxyNK7c78bLwvsdeMH5-23" target="dNxyNK7c78bLwvsdeMH5-24" edge="1">
          <mxGeometry relative="1" as="geometry" />
        </mxCell>
        <mxCell id="dNxyNK7c78bLwvsdeMH5-23" value="" style="ellipse;whiteSpace=wrap;html=1;" parent="dNxyNK7c78bLwvsdeMH5-20" vertex="1">
          <mxGeometry x="40" y="40" width="40" height="40" as="geometry" />
        </mxCell>
        <mxCell id="dNxyNK7c78bLwvsdeMH5-24" value="" style="rounded=0;whiteSpace=wrap;html=1;fontFamily=Helvetica;fontSize=12;fontColor=#000000;align=center;" parent="dNxyNK7c78bLwvsdeMH5-20" vertex="1">
          <mxGeometry x="120" y="30" width="80" height="60" as="geometry" />
        </mxCell>
        <mxCell id="dNxyNK7c78bLwvsdeMH5-33" value="" style="edgeStyle=orthogonalEdgeStyle;rounded=0;orthogonalLoop=1;jettySize=auto;html=1;endArrow=classic;endFill=1;" parent="dNxyNK7c78bLwvsdeMH5-20" source="dNxyNK7c78bLwvsdeMH5-30" target="dNxyNK7c78bLwvsdeMH5-32" edge="1">
          <mxGeometry relative="1" as="geometry" />
        </mxCell>
        <mxCell id="dNxyNK7c78bLwvsdeMH5-30" value="" style="rounded=0;whiteSpace=wrap;html=1;fontFamily=Helvetica;fontSize=12;fontColor=#000000;align=center;" parent="dNxyNK7c78bLwvsdeMH5-20" vertex="1">
          <mxGeometry x="240" y="30" width="80" height="60" as="geometry" />
        </mxCell>
        <mxCell id="dNxyNK7c78bLwvsdeMH5-32" value="" style="ellipse;whiteSpace=wrap;html=1;" parent="dNxyNK7c78bLwvsdeMH5-20" vertex="1">
          <mxGeometry x="360" y="40" width="40" height="40" as="geometry" />
        </mxCell>
        <mxCell id="dNxyNK7c78bLwvsdeMH5-21" value="Lane 2" style="swimlane;html=1;startSize=20;horizontal=0;" parent="dNxyNK7c78bLwvsdeMH5-19" vertex="1">
          <mxGeometry x="20" y="120" width="430" height="120" as="geometry" />
        </mxCell>
        <mxCell id="dNxyNK7c78bLwvsdeMH5-29" value="" style="edgeStyle=orthogonalEdgeStyle;rounded=0;orthogonalLoop=1;jettySize=auto;html=1;endArrow=classic;endFill=1;" parent="dNxyNK7c78bLwvsdeMH5-21" source="dNxyNK7c78bLwvsdeMH5-26" target="dNxyNK7c78bLwvsdeMH5-28" edge="1">
          <mxGeometry relative="1" as="geometry" />
        </mxCell>
        <mxCell id="dNxyNK7c78bLwvsdeMH5-26" value="" style="rounded=0;whiteSpace=wrap;html=1;fontFamily=Helvetica;fontSize=12;fontColor=#000000;align=center;" parent="dNxyNK7c78bLwvsdeMH5-21" vertex="1">
          <mxGeometry x="120" y="30" width="80" height="60" as="geometry" />
        </mxCell>
        <mxCell id="dNxyNK7c78bLwvsdeMH5-28" value="" style="rhombus;whiteSpace=wrap;html=1;fontFamily=Helvetica;fontSize=12;fontColor=#000000;align=center;" parent="dNxyNK7c78bLwvsdeMH5-21" vertex="1">
          <mxGeometry x="260" y="40" width="40" height="40" as="geometry" />
        </mxCell>
        <mxCell id="dNxyNK7c78bLwvsdeMH5-22" value="Lane 3" style="swimlane;html=1;startSize=20;horizontal=0;" parent="dNxyNK7c78bLwvsdeMH5-19" vertex="1">
          <mxGeometry x="20" y="240" width="430" height="120" as="geometry" />
        </mxCell>
        <mxCell id="dNxyNK7c78bLwvsdeMH5-37" value="" style="edgeStyle=orthogonalEdgeStyle;rounded=0;orthogonalLoop=1;jettySize=auto;html=1;endArrow=classic;endFill=1;" parent="dNxyNK7c78bLwvsdeMH5-22" source="dNxyNK7c78bLwvsdeMH5-34" target="dNxyNK7c78bLwvsdeMH5-36" edge="1">
          <mxGeometry relative="1" as="geometry" />
        </mxCell>
        <mxCell id="dNxyNK7c78bLwvsdeMH5-34" value="" style="rounded=0;whiteSpace=wrap;html=1;fontFamily=Helvetica;fontSize=12;fontColor=#000000;align=center;" parent="dNxyNK7c78bLwvsdeMH5-22" vertex="1">
          <mxGeometry x="240" y="20" width="80" height="60" as="geometry" />
        </mxCell>
        <mxCell id="dNxyNK7c78bLwvsdeMH5-36" value="" style="rhombus;whiteSpace=wrap;html=1;fontFamily=Helvetica;fontSize=12;fontColor=#000000;align=center;" parent="dNxyNK7c78bLwvsdeMH5-22" vertex="1">
          <mxGeometry x="360" y="30" width="40" height="40" as="geometry" />
        </mxCell>
      </root>
    </mxGraphModel>
  </diagram>
  <diagram id="2EtqR8d0Fk7uFiyFbI7K" name="Page-2">
    <mxGraphModel dx="2571" dy="850" grid="1" gridSize="10" guides="1" tooltips="1" connect="1" arrows="1" fold="1" page="1" pageScale="1" pageWidth="827" pageHeight="1169" math="0" shadow="0">
      <root>
        <mxCell id="5xbf2kwdc9OWbnzsA73F-0" />
        <mxCell id="5xbf2kwdc9OWbnzsA73F-1" parent="5xbf2kwdc9OWbnzsA73F-0" />
        <mxCell id="kg0twxn1he8x0y-PopcD-0" value="Landing page" style="rounded=0;whiteSpace=wrap;html=1;" vertex="1" parent="5xbf2kwdc9OWbnzsA73F-1">
          <mxGeometry x="280" y="40" width="120" height="60" as="geometry" />
        </mxCell>
        <mxCell id="ioZpoabRF0Tp4KCyzT5P-0" value="" style="endArrow=none;html=1;rounded=0;" edge="1" parent="5xbf2kwdc9OWbnzsA73F-1">
          <mxGeometry width="50" height="50" relative="1" as="geometry">
            <mxPoint x="339.5" y="160" as="sourcePoint" />
            <mxPoint x="339.5" y="100" as="targetPoint" />
            <Array as="points" />
          </mxGeometry>
        </mxCell>
        <mxCell id="ioZpoabRF0Tp4KCyzT5P-3" value="" style="endArrow=none;html=1;rounded=0;" edge="1" parent="5xbf2kwdc9OWbnzsA73F-1">
          <mxGeometry width="50" height="50" relative="1" as="geometry">
            <mxPoint x="-60" y="160" as="sourcePoint" />
            <mxPoint x="520" y="160" as="targetPoint" />
          </mxGeometry>
        </mxCell>
        <mxCell id="ioZpoabRF0Tp4KCyzT5P-4" value="" style="endArrow=classic;html=1;rounded=0;" edge="1" parent="5xbf2kwdc9OWbnzsA73F-1" target="ioZpoabRF0Tp4KCyzT5P-6">
          <mxGeometry width="50" height="50" relative="1" as="geometry">
            <mxPoint x="160" y="160" as="sourcePoint" />
            <mxPoint x="160" y="240" as="targetPoint" />
          </mxGeometry>
        </mxCell>
        <mxCell id="ioZpoabRF0Tp4KCyzT5P-5" value="" style="endArrow=classic;html=1;rounded=0;entryX=0.667;entryY=0;entryDx=0;entryDy=0;entryPerimeter=0;" edge="1" parent="5xbf2kwdc9OWbnzsA73F-1" target="ioZpoabRF0Tp4KCyzT5P-7">
          <mxGeometry width="50" height="50" relative="1" as="geometry">
            <mxPoint x="520" y="160" as="sourcePoint" />
            <mxPoint x="520" y="240" as="targetPoint" />
          </mxGeometry>
        </mxCell>
        <mxCell id="ioZpoabRF0Tp4KCyzT5P-6" value="Inscription" style="rounded=0;whiteSpace=wrap;html=1;" vertex="1" parent="5xbf2kwdc9OWbnzsA73F-1">
          <mxGeometry x="100" y="210" width="120" height="60" as="geometry" />
        </mxCell>
        <mxCell id="ioZpoabRF0Tp4KCyzT5P-7" value="Connexion" style="rounded=0;whiteSpace=wrap;html=1;" vertex="1" parent="5xbf2kwdc9OWbnzsA73F-1">
          <mxGeometry x="440" y="210" width="120" height="60" as="geometry" />
        </mxCell>
        <mxCell id="ioZpoabRF0Tp4KCyzT5P-8" value="" style="endArrow=none;html=1;rounded=0;" edge="1" parent="5xbf2kwdc9OWbnzsA73F-1">
          <mxGeometry width="50" height="50" relative="1" as="geometry">
            <mxPoint x="160" y="320" as="sourcePoint" />
            <mxPoint x="520" y="320" as="targetPoint" />
          </mxGeometry>
        </mxCell>
        <mxCell id="ioZpoabRF0Tp4KCyzT5P-9" value="" style="endArrow=none;html=1;rounded=0;exitX=0.5;exitY=1;exitDx=0;exitDy=0;" edge="1" parent="5xbf2kwdc9OWbnzsA73F-1" source="ioZpoabRF0Tp4KCyzT5P-6">
          <mxGeometry width="50" height="50" relative="1" as="geometry">
            <mxPoint x="310" y="380" as="sourcePoint" />
            <mxPoint x="160" y="320" as="targetPoint" />
          </mxGeometry>
        </mxCell>
        <mxCell id="ioZpoabRF0Tp4KCyzT5P-10" value="" style="endArrow=none;html=1;rounded=0;exitX=0.66;exitY=1.033;exitDx=0;exitDy=0;exitPerimeter=0;" edge="1" parent="5xbf2kwdc9OWbnzsA73F-1" source="ioZpoabRF0Tp4KCyzT5P-7">
          <mxGeometry width="50" height="50" relative="1" as="geometry">
            <mxPoint x="310" y="380" as="sourcePoint" />
            <mxPoint x="520" y="320" as="targetPoint" />
            <Array as="points" />
          </mxGeometry>
        </mxCell>
        <mxCell id="ioZpoabRF0Tp4KCyzT5P-11" value="" style="endArrow=classic;html=1;rounded=0;" edge="1" parent="5xbf2kwdc9OWbnzsA73F-1" target="ioZpoabRF0Tp4KCyzT5P-12">
          <mxGeometry width="50" height="50" relative="1" as="geometry">
            <mxPoint x="340" y="320" as="sourcePoint" />
            <mxPoint x="340" y="370" as="targetPoint" />
            <Array as="points">
              <mxPoint x="340" y="350" />
            </Array>
          </mxGeometry>
        </mxCell>
        <mxCell id="ioZpoabRF0Tp4KCyzT5P-14" value="" style="edgeStyle=orthogonalEdgeStyle;rounded=0;orthogonalLoop=1;jettySize=auto;html=1;" edge="1" parent="5xbf2kwdc9OWbnzsA73F-1" source="ioZpoabRF0Tp4KCyzT5P-12" target="ioZpoabRF0Tp4KCyzT5P-13">
          <mxGeometry relative="1" as="geometry" />
        </mxCell>
        <mxCell id="ioZpoabRF0Tp4KCyzT5P-12" value="Fil d&#39;actualité" style="rounded=0;whiteSpace=wrap;html=1;" vertex="1" parent="5xbf2kwdc9OWbnzsA73F-1">
          <mxGeometry x="280" y="360" width="120" height="60" as="geometry" />
        </mxCell>
        <mxCell id="ioZpoabRF0Tp4KCyzT5P-28" value="" style="edgeStyle=orthogonalEdgeStyle;rounded=0;orthogonalLoop=1;jettySize=auto;html=1;" edge="1" parent="5xbf2kwdc9OWbnzsA73F-1" source="ioZpoabRF0Tp4KCyzT5P-13" target="ioZpoabRF0Tp4KCyzT5P-27">
          <mxGeometry relative="1" as="geometry" />
        </mxCell>
        <mxCell id="ioZpoabRF0Tp4KCyzT5P-13" value="Profil d&#39;utilisateur" style="whiteSpace=wrap;html=1;rounded=0;" vertex="1" parent="5xbf2kwdc9OWbnzsA73F-1">
          <mxGeometry x="280" y="500" width="120" height="60" as="geometry" />
        </mxCell>
        <mxCell id="ioZpoabRF0Tp4KCyzT5P-15" value="Réservation" style="rounded=0;whiteSpace=wrap;html=1;" vertex="1" parent="5xbf2kwdc9OWbnzsA73F-1">
          <mxGeometry x="70" y="620" width="120" height="60" as="geometry" />
        </mxCell>
        <mxCell id="ioZpoabRF0Tp4KCyzT5P-32" value="" style="edgeStyle=orthogonalEdgeStyle;rounded=0;orthogonalLoop=1;jettySize=auto;html=1;" edge="1" parent="5xbf2kwdc9OWbnzsA73F-1" source="ioZpoabRF0Tp4KCyzT5P-16" target="ioZpoabRF0Tp4KCyzT5P-31">
          <mxGeometry relative="1" as="geometry">
            <Array as="points">
              <mxPoint x="560" y="590" />
              <mxPoint x="560" y="590" />
            </Array>
          </mxGeometry>
        </mxCell>
        <mxCell id="ioZpoabRF0Tp4KCyzT5P-16" value="Création d&#39;annonce" style="rounded=0;whiteSpace=wrap;html=1;" vertex="1" parent="5xbf2kwdc9OWbnzsA73F-1">
          <mxGeometry x="490" y="500" width="120" height="60" as="geometry" />
        </mxCell>
        <mxCell id="ioZpoabRF0Tp4KCyzT5P-22" value="Fil d&#39;actualité" style="rounded=0;whiteSpace=wrap;html=1;" vertex="1" parent="5xbf2kwdc9OWbnzsA73F-1">
          <mxGeometry x="-120" y="210" width="120" height="60" as="geometry" />
        </mxCell>
        <mxCell id="ioZpoabRF0Tp4KCyzT5P-23" value="" style="endArrow=classic;html=1;rounded=0;entryX=0.5;entryY=0;entryDx=0;entryDy=0;" edge="1" parent="5xbf2kwdc9OWbnzsA73F-1" target="ioZpoabRF0Tp4KCyzT5P-22">
          <mxGeometry width="50" height="50" relative="1" as="geometry">
            <mxPoint x="-60" y="160" as="sourcePoint" />
            <mxPoint x="30" y="190" as="targetPoint" />
          </mxGeometry>
        </mxCell>
        <mxCell id="ioZpoabRF0Tp4KCyzT5P-24" value="" style="endArrow=classic;startArrow=classic;html=1;rounded=0;" edge="1" parent="5xbf2kwdc9OWbnzsA73F-1">
          <mxGeometry width="50" height="50" relative="1" as="geometry">
            <mxPoint x="400" y="530" as="sourcePoint" />
            <mxPoint x="490" y="530" as="targetPoint" />
            <Array as="points">
              <mxPoint x="400" y="530" />
              <mxPoint x="490" y="530" />
            </Array>
          </mxGeometry>
        </mxCell>
        <mxCell id="ioZpoabRF0Tp4KCyzT5P-30" value="" style="edgeStyle=orthogonalEdgeStyle;rounded=0;orthogonalLoop=1;jettySize=auto;html=1;" edge="1" parent="5xbf2kwdc9OWbnzsA73F-1" source="ioZpoabRF0Tp4KCyzT5P-25" target="ioZpoabRF0Tp4KCyzT5P-29">
          <mxGeometry relative="1" as="geometry">
            <Array as="points">
              <mxPoint x="120" y="820" />
              <mxPoint x="120" y="820" />
            </Array>
          </mxGeometry>
        </mxCell>
        <mxCell id="ioZpoabRF0Tp4KCyzT5P-25" value="Calendrier" style="whiteSpace=wrap;html=1;rounded=0;" vertex="1" parent="5xbf2kwdc9OWbnzsA73F-1">
          <mxGeometry x="70" y="760" width="120" height="60" as="geometry" />
        </mxCell>
        <mxCell id="ioZpoabRF0Tp4KCyzT5P-41" value="" style="edgeStyle=orthogonalEdgeStyle;rounded=0;orthogonalLoop=1;jettySize=auto;html=1;" edge="1" parent="5xbf2kwdc9OWbnzsA73F-1" source="ioZpoabRF0Tp4KCyzT5P-27" target="ioZpoabRF0Tp4KCyzT5P-40">
          <mxGeometry relative="1" as="geometry" />
        </mxCell>
        <mxCell id="ioZpoabRF0Tp4KCyzT5P-27" value="Mes réservations" style="whiteSpace=wrap;html=1;rounded=0;" vertex="1" parent="5xbf2kwdc9OWbnzsA73F-1">
          <mxGeometry x="280" y="620" width="120" height="60" as="geometry" />
        </mxCell>
        <mxCell id="ioZpoabRF0Tp4KCyzT5P-29" value="Contacter l&#39;annonceur" style="whiteSpace=wrap;html=1;rounded=0;" vertex="1" parent="5xbf2kwdc9OWbnzsA73F-1">
          <mxGeometry x="70" y="880" width="120" height="60" as="geometry" />
        </mxCell>
        <mxCell id="ioZpoabRF0Tp4KCyzT5P-34" value="" style="edgeStyle=orthogonalEdgeStyle;rounded=0;orthogonalLoop=1;jettySize=auto;html=1;" edge="1" parent="5xbf2kwdc9OWbnzsA73F-1" source="ioZpoabRF0Tp4KCyzT5P-31" target="ioZpoabRF0Tp4KCyzT5P-33">
          <mxGeometry relative="1" as="geometry">
            <Array as="points">
              <mxPoint x="560" y="720" />
              <mxPoint x="560" y="720" />
            </Array>
          </mxGeometry>
        </mxCell>
        <mxCell id="ioZpoabRF0Tp4KCyzT5P-31" value="Publier l&#39;annonce" style="whiteSpace=wrap;html=1;rounded=0;" vertex="1" parent="5xbf2kwdc9OWbnzsA73F-1">
          <mxGeometry x="490" y="620" width="120" height="60" as="geometry" />
        </mxCell>
        <mxCell id="ioZpoabRF0Tp4KCyzT5P-33" value="Nombre de vu" style="whiteSpace=wrap;html=1;rounded=0;" vertex="1" parent="5xbf2kwdc9OWbnzsA73F-1">
          <mxGeometry x="490" y="780" width="120" height="60" as="geometry" />
        </mxCell>
        <mxCell id="ioZpoabRF0Tp4KCyzT5P-39" value="" style="endArrow=classic;startArrow=classic;html=1;rounded=0;exitX=1;exitY=0.5;exitDx=0;exitDy=0;" edge="1" parent="5xbf2kwdc9OWbnzsA73F-1" source="ioZpoabRF0Tp4KCyzT5P-12">
          <mxGeometry width="50" height="50" relative="1" as="geometry">
            <mxPoint x="410" y="390" as="sourcePoint" />
            <mxPoint x="610" y="660" as="targetPoint" />
            <Array as="points">
              <mxPoint x="660" y="390" />
              <mxPoint x="660" y="550" />
              <mxPoint x="660" y="660" />
            </Array>
          </mxGeometry>
        </mxCell>
        <mxCell id="ioZpoabRF0Tp4KCyzT5P-40" value="Mes messages" style="whiteSpace=wrap;html=1;rounded=0;" vertex="1" parent="5xbf2kwdc9OWbnzsA73F-1">
          <mxGeometry x="280" y="780" width="120" height="60" as="geometry" />
        </mxCell>
        <mxCell id="ioZpoabRF0Tp4KCyzT5P-43" value="" style="whiteSpace=wrap;html=1;rounded=0;" vertex="1" parent="5xbf2kwdc9OWbnzsA73F-1">
          <mxGeometry x="70" y="500" width="120" height="60" as="geometry" />
        </mxCell>
        <mxCell id="ioZpoabRF0Tp4KCyzT5P-45" value="" style="endArrow=classic;html=1;rounded=0;exitX=0.5;exitY=1;exitDx=0;exitDy=0;entryX=0.5;entryY=0;entryDx=0;entryDy=0;" edge="1" parent="5xbf2kwdc9OWbnzsA73F-1" source="ioZpoabRF0Tp4KCyzT5P-15" target="ioZpoabRF0Tp4KCyzT5P-25">
          <mxGeometry width="50" height="50" relative="1" as="geometry">
            <mxPoint x="300" y="700" as="sourcePoint" />
            <mxPoint x="350" y="650" as="targetPoint" />
          </mxGeometry>
        </mxCell>
        <mxCell id="ioZpoabRF0Tp4KCyzT5P-46" value="" style="endArrow=classic;startArrow=classic;html=1;rounded=0;exitX=0.5;exitY=0;exitDx=0;exitDy=0;entryX=0.585;entryY=-0.04;entryDx=0;entryDy=0;entryPerimeter=0;" edge="1" parent="5xbf2kwdc9OWbnzsA73F-1" source="ioZpoabRF0Tp4KCyzT5P-43" target="ioZpoabRF0Tp4KCyzT5P-16">
          <mxGeometry width="50" height="50" relative="1" as="geometry">
            <mxPoint x="220" y="660" as="sourcePoint" />
            <mxPoint x="270" y="610" as="targetPoint" />
            <Array as="points">
              <mxPoint x="130" y="470" />
              <mxPoint x="340" y="470" />
              <mxPoint x="560" y="470" />
              <mxPoint x="560" y="480" />
            </Array>
          </mxGeometry>
        </mxCell>
        <mxCell id="ioZpoabRF0Tp4KCyzT5P-47" value="" style="endArrow=classic;html=1;rounded=0;exitX=0.5;exitY=1;exitDx=0;exitDy=0;entryX=0.5;entryY=0;entryDx=0;entryDy=0;" edge="1" parent="5xbf2kwdc9OWbnzsA73F-1" source="ioZpoabRF0Tp4KCyzT5P-43" target="ioZpoabRF0Tp4KCyzT5P-15">
          <mxGeometry width="50" height="50" relative="1" as="geometry">
            <mxPoint x="230" y="640" as="sourcePoint" />
            <mxPoint x="130" y="630" as="targetPoint" />
          </mxGeometry>
        </mxCell>
        <mxCell id="ioZpoabRF0Tp4KCyzT5P-48" value="" style="endArrow=classic;startArrow=classic;html=1;rounded=0;exitX=1;exitY=0.5;exitDx=0;exitDy=0;" edge="1" parent="5xbf2kwdc9OWbnzsA73F-1" source="ioZpoabRF0Tp4KCyzT5P-49">
          <mxGeometry width="50" height="50" relative="1" as="geometry">
            <mxPoint x="240" y="1040" as="sourcePoint" />
            <mxPoint x="340" y="130" as="targetPoint" />
            <Array as="points">
              <mxPoint x="740" y="1010" />
              <mxPoint x="740" y="130" />
            </Array>
          </mxGeometry>
        </mxCell>
        <mxCell id="ioZpoabRF0Tp4KCyzT5P-49" value="Nous contacter" style="rounded=0;whiteSpace=wrap;html=1;" vertex="1" parent="5xbf2kwdc9OWbnzsA73F-1">
          <mxGeometry x="-130" y="980" width="120" height="60" as="geometry" />
        </mxCell>
        <mxCell id="ioZpoabRF0Tp4KCyzT5P-50" value="A propos" style="rounded=0;whiteSpace=wrap;html=1;" vertex="1" parent="5xbf2kwdc9OWbnzsA73F-1">
          <mxGeometry x="500" y="980" width="120" height="60" as="geometry" />
        </mxCell>
      </root>
    </mxGraphModel>
  </diagram>
</mxfile>
